# xmcd
#
# Track frame offsets: 
#        150
#        13192
#        31300
#        45220
#        59332
#        71470
#        85062
#        98100
#        110337
#        120322
#        131025
#        141447
#        149825
#        162517
#
# Disc length: 2303 seconds
#
# Revision: 2
# Processed by: cddbd v1.5.2PL0 Copyright (c) Steve Scherf et al.
# Submitted via: ExactAudioCopy v1.0b3
#
DISCID=c308fd0e
DTITLE=Charlie Rich - Gold
DYEAR=1993
DGENRE=Country
TTITLE0=Behind closed doors (Live 1974)
TTITLE1=Let's take it nice and easy (Live 1985)
TTITLE2=Midnite blues (1962)
TTITLE3=A Sunday kind of woman (1973)
TTITLE4=She (1975)
TTITLE5=Since I fell for you (1975)
TTITLE6=I take it on home (1972)
TTITLE7=Big man (1959)
TTITLE8=That's how much I love you (1960)
TTITLE9=Who will the next fool be? (1970)
TTITLE10=CC Rider (1960)
TTITLE11=Rebound (1959)
TTITLE12=Stay (1960)
TTITLE13=Unchained melody (1960)
EXTD=
EXTT0=
EXTT1=
EXTT2=
EXTT3=
EXTT4=
EXTT5=
EXTT6=
EXTT7=
EXTT8=
EXTT9=
EXTT10=
EXTT11=
EXTT12=
EXTT13=
PLAYORDER=
